<?xml version="1.0" encoding="utf-8"?>
<!-- Generator: Adobe Illustrator 25.2.1, SVG Export Plug-In . SVG Version: 6.00 Build 0)  -->
<svg version="1.1" id="Layer_1" xmlns="http://www.w3.org/2000/svg" xmlns:xlink="http://www.w3.org/1999/xlink" x="0px" y="0px"
	 viewBox="0 0 233.7 31.8" style="enable-background:new 0 0 233.7 31.8;" xml:space="preserve">
<style type="text/css">
	.st0{font-family:'ProximaNova-Light';}
	.st1{font-size:24.0008px;}
	.st2{fill:#1D1D1B;}
</style>
<g>
	<text transform="matrix(1 0 0 1 35.397 22.546)" class="st0 st1">Apensia’s Devblog</text>
	<g>
		<g>
			<path class="st2" d="M18.1,21.6C18.1,21.6,18,21.6,18.1,21.6L4.4,10.1c0,0-0.1-0.1,0-0.3c0.1-0.1,0.1-0.1,0.3,0L18.1,21L31.6,9.8
				c0.1-0.1,0.3,0,0.3,0c0.1,0.1,0,0.3,0,0.3L18.1,21.6C18.3,21.6,18.1,21.6,18.1,21.6z"/>
		</g>
		<g>
			<path class="st2" d="M29.1,31.1c-0.1,0-0.1,0-0.1-0.1L18.1,1.5L7.5,31c0,0.1-0.1,0.1-0.3,0.1c-0.1,0-0.1-0.1-0.1-0.3L18,0.9
				c0-0.1,0.1-0.1,0.1-0.1c0.1,0,0.1,0,0.1,0.1l10.9,29.9C29.2,30.8,29.2,31,29.1,31.1L29.1,31.1z"/>
		</g>
	</g>
</g>
</svg>
