<?xml version="1.0" encoding="utf-8"?>
<!-- Generator: Adobe Illustrator 25.2.1, SVG Export Plug-In . SVG Version: 6.00 Build 0)  -->
<svg version="1.1" id="Layer_1" xmlns="http://www.w3.org/2000/svg" xmlns:xlink="http://www.w3.org/1999/xlink" x="0px" y="0px"
	 viewBox="0 0 155.2 21.1" style="enable-background:new 0 0 155.2 21.1;" xml:space="preserve">
<style type="text/css">
	.st0{font-family:'ProximaNova-Light';}
	.st1{font-size:16.456px;}
	.st2{fill:#1D1D1B;}
</style>
<g>
	<text transform="matrix(1 0 0 1 22.329 15.1299)" class="st0 st1">Apensia’s Devblog</text>
	<g>
		<g>
			<path class="st2" d="M10.5,14.5C10.5,14.5,10.4,14.5,10.5,14.5L1.1,6.6C1.1,6.6,1,6.5,1.1,6.4c0.1-0.1,0.1-0.1,0.2,0l9.2,7.7
				l9.2-7.7c0.1-0.1,0.2,0,0.2,0c0.1,0.1,0,0.2,0,0.2L10.5,14.5C10.6,14.5,10.5,14.5,10.5,14.5z"/>
		</g>
		<g>
			<path class="st2" d="M18,21c-0.1,0-0.1,0-0.1-0.1L10.5,0.7L3.2,20.9c0,0.1-0.1,0.1-0.2,0.1c-0.1,0-0.1-0.1-0.1-0.2l7.5-20.5
				c0-0.1,0.1-0.1,0.1-0.1c0.1,0,0.1,0,0.1,0.1l7.5,20.5C18.1,20.8,18.1,20.9,18,21C18,21,18,21,18,21z"/>
		</g>
	</g>
</g>
</svg>
